<svg width="15" height="15" viewBox="0 0 15 15" fill="none" xmlns="http://www.w3.org/2000/svg">
<path fill-rule="evenodd" clip-rule="evenodd" d="M7.5 15C3.35766 15 0 11.6423 0 7.5C0 3.35766 3.35766 0 7.5 0C11.6423 0 15 3.35766 15 7.5C15 11.6423 11.6423 15 7.5 15ZM10.8698 6.57188C11.017 5.58938 10.2684 5.06109 9.24563 4.70859L9.5775 3.37734L8.7675 3.17578L8.44406 4.47188C8.23125 4.41844 8.01281 4.36875 7.79484 4.31906L8.12062 3.01453L7.31063 2.8125L6.97875 4.14328C6.8025 4.10297 6.62906 4.06359 6.46125 4.02141L6.46219 4.01719L5.34469 3.73828L5.12906 4.60359C5.12906 4.60359 5.73047 4.74141 5.71781 4.74984C6.04594 4.83188 6.105 5.04891 6.09516 5.22141L5.71734 6.73781C5.73984 6.74344 5.76891 6.75187 5.80172 6.76453L5.71594 6.74344L5.18625 8.86781C5.14594 8.96719 5.04422 9.11672 4.81453 9.06C4.82297 9.07172 4.22578 8.91328 4.22578 8.91328L3.82359 9.84047L4.87828 10.1034C5.07422 10.1527 5.26641 10.2042 5.45531 10.2525L5.12016 11.5988L5.92969 11.8003L6.26156 10.4691C6.48281 10.5286 6.6975 10.5839 6.9075 10.6364L6.57656 11.962L7.38656 12.1636L7.72172 10.8202C9.10359 11.0817 10.1423 10.9762 10.5797 9.72656C10.9322 8.72062 10.5623 8.13984 9.83531 7.76156C10.365 7.63969 10.7634 7.29141 10.8698 6.57188ZM9.01828 9.16781C8.76844 10.1742 7.07391 9.63 6.52453 9.49359L6.96984 7.71C7.51922 7.84734 9.28031 8.11875 9.01828 9.16781ZM9.26906 6.55734C9.04078 7.47281 7.63078 7.00734 7.17375 6.89344L7.57687 5.27625C8.03391 5.39016 9.50719 5.6025 9.26906 6.55734Z" fill="white"/>
</svg>
