<svg width="51" height="51" viewBox="0 0 51 51" fill="none" xmlns="http://www.w3.org/2000/svg">
<circle cx="25.0022" cy="25.8506" r="25.0022" fill="#40C0E7" fill-opacity="0.24"/>
<g clip-path="url(#clip0_1_167)">
<path d="M17.5333 11.8484L15.6667 22.1151C15.3941 23.6177 18.9931 24.3196 18.9333 25.8484L18.4667 37.9817C18.3957 39.8484 20.3333 39.8484 20.3333 39.8484C20.3333 39.8484 22.2709 39.8484 22.2 37.9817L21.7333 25.8484C21.6755 24.3215 24.9683 23.6457 25 22.1151L23.1333 11.8484H22.2L22.6667 19.3151L21.2667 20.2484L20.8 11.8484H19.8667L19.4 20.2484L18 19.3151L18.4667 11.8484H17.5333ZM33.4 11.8484C32.0261 11.8484 29.7339 13.0711 28.8173 14.9041C28.052 16.278 27.8 19.3487 27.8 21.1817V25.8484C27.8 27.3753 29.8347 27.7151 30.6 27.7151L29.6667 37.9817C29.4987 39.8409 31.5333 39.8484 31.5333 39.8484C31.5333 39.8484 33.4 39.8484 33.4 37.9817V11.8484Z" fill="#40C0E7"/>
</g>
<defs>
<clipPath id="clip0_1_167">
<rect width="28" height="28" fill="white" transform="translate(11 11.8484)"/>
</clipPath>
</defs>
</svg>
