<svg width="51" height="51" viewBox="0 0 51 51" fill="none" xmlns="http://www.w3.org/2000/svg">
<circle cx="25.0022" cy="25.855" r="25.0022" fill="#21C531" fill-opacity="0.2"/>
<path d="M26.0048 17.4165C26.0001 16.8642 25.5486 16.4203 24.9964 16.425C24.4441 16.4297 24.0002 16.8812 24.0049 17.4335L26.0048 17.4165ZM24.4455 34.7758C24.8393 35.163 25.4725 35.1576 25.8596 34.7638L32.1692 28.3458C32.5564 27.952 32.551 27.3189 32.1572 26.9317C31.7633 26.5445 31.1302 26.5499 30.743 26.9437L25.1345 32.6485L19.4297 27.0401C19.0359 26.6529 18.4027 26.6583 18.0155 27.0521C17.6283 27.4459 17.6337 28.0791 18.0276 28.4663L24.4455 34.7758ZM24.0049 17.4335L24.1466 34.0712L26.1465 34.0542L26.0048 17.4165L24.0049 17.4335Z" fill="#21C531" fill-opacity="0.88"/>
</svg>
