<svg width="16" height="17" viewBox="0 0 16 17" fill="none" xmlns="http://www.w3.org/2000/svg">
<path d="M8.09491 0.867157C8.09491 0.591015 7.87105 0.367157 7.59491 0.367157C7.31877 0.367157 7.09491 0.591015 7.09491 0.867157L8.09491 0.867157ZM7.24136 9.95256C7.43662 10.1478 7.7532 10.1478 7.94846 9.95256L11.1304 6.77058C11.3257 6.57532 11.3257 6.25873 11.1304 6.06347C10.9352 5.86821 10.6186 5.86821 10.4233 6.06347L7.59491 8.8919L4.76648 6.06347C4.57122 5.86821 4.25464 5.86821 4.05938 6.06347C3.86411 6.25873 3.86411 6.57532 4.05938 6.77058L7.24136 9.95256ZM7.09491 0.867157L7.09491 9.59901L8.09491 9.59901L8.09491 0.867157L7.09491 0.867157Z" fill="black" fill-opacity="0.88"/>
<path d="M0.539612 6.70868V16.2913H14.6502V6.70868" stroke="black" stroke-opacity="0.88" stroke-linecap="round" stroke-linejoin="round"/>
</svg>
