<svg width="51" height="51" viewBox="0 0 51 51" fill="none" xmlns="http://www.w3.org/2000/svg">
<circle cx="25.0022" cy="25.8462" r="25.0022" fill="#FCC21B" fill-opacity="0.28"/>
<g clip-path="url(#clip0_1_95)">
<path d="M29.4612 15.1854C29.4612 15.771 28.9799 16.2523 28.3943 16.2523H21.6155C21.0272 16.2523 20.5486 15.771 20.5486 15.1854V12.3C20.5486 11.7117 21.0299 11.2331 21.6155 11.2331H28.3916C28.9772 11.2331 29.4585 11.7117 29.4585 12.3V15.1854H29.4612Z" fill="#2F2F2F"/>
<path d="M24.5784 12.514H24.1291C24.1104 12.514 24.0944 12.5247 24.0917 12.5407L23.3643 14.466C23.3619 14.4726 23.361 14.4798 23.362 14.4868C23.3629 14.4938 23.3656 14.5004 23.3697 14.5061C23.375 14.5168 23.3911 14.5222 23.4045 14.5222H23.8778C23.8965 14.5222 23.9125 14.5115 23.9206 14.4928L24.0302 14.1612H24.6773L24.7869 14.4928C24.7923 14.5088 24.8083 14.5222 24.8271 14.5222H25.303C25.3164 14.5222 25.3298 14.5168 25.3378 14.5061C25.3458 14.4954 25.3485 14.4794 25.3458 14.466L24.6212 12.5407C24.6105 12.5247 24.5971 12.514 24.5784 12.514V12.514ZM24.1639 13.7574L24.3511 13.1905L24.5409 13.7574H24.1639V13.7574ZM28.298 12.514H27.822C27.7979 12.514 27.7792 12.5354 27.7792 12.5594V14.4821C27.7792 14.5088 27.7979 14.5275 27.822 14.5275H28.298C28.3221 14.5275 28.3408 14.5088 28.3408 14.4821V12.5594C28.3408 12.5354 28.3221 12.514 28.298 12.514V12.514ZM26.8914 13.5274L27.5279 12.5808C27.5316 12.5739 27.5338 12.5662 27.5343 12.5584C27.5347 12.5505 27.5335 12.5427 27.5305 12.5354C27.5225 12.522 27.5091 12.5113 27.4931 12.5113H26.9556C26.9422 12.5113 26.9289 12.5193 26.9208 12.53L26.5625 13.0488L26.2095 12.53C26.1989 12.5193 26.1882 12.5113 26.1748 12.5113H25.6373C25.6294 12.5112 25.6216 12.5134 25.6149 12.5177C25.6083 12.5219 25.603 12.5281 25.5999 12.5354C25.5918 12.5487 25.5918 12.5674 25.5999 12.5808L26.2363 13.5274L25.5972 14.458C25.5865 14.4714 25.5865 14.4874 25.5945 14.5008C25.6025 14.5168 25.6159 14.5249 25.6319 14.5249H26.1962C26.2069 14.5249 26.2229 14.5195 26.2283 14.5061L26.5598 14.0141L26.8941 14.5061C26.9021 14.5195 26.9128 14.5249 26.9289 14.5249H27.4931C27.5118 14.5249 27.5252 14.5168 27.5305 14.5008C27.5386 14.4874 27.5386 14.4687 27.5305 14.458L26.8914 13.5274V13.5274ZM23.5943 12.8857V12.538C23.5943 12.514 23.5756 12.4926 23.5515 12.4926H21.7091C21.685 12.4926 21.6663 12.514 21.6663 12.538V12.8857C21.6663 12.9097 21.685 12.9311 21.7091 12.9311H22.3749V14.4847C22.3749 14.5115 22.3963 14.5302 22.4204 14.5302H22.8402C22.8643 14.5302 22.883 14.5115 22.883 14.4847V12.9311H23.5515C23.5729 12.9284 23.5943 12.9071 23.5943 12.8857V12.8857Z" fill="white"/>
<path d="M32.8519 37.84C32.8519 39.0112 33.7958 39.9605 34.9671 39.9605C36.1383 39.9605 37.0823 39.0085 37.0823 37.84V29.2616C37.0823 28.0957 36.1383 27.1464 34.9671 27.1464C33.7958 27.1464 32.8519 28.0957 32.8519 29.2616V37.84ZM13.0692 37.84C13.0692 39.0112 14.0158 39.9605 15.1844 39.9605C16.3556 39.9605 17.2996 39.0085 17.2996 37.84V29.2616C17.2996 28.0957 16.353 27.1464 15.1844 27.1464C14.0158 27.1464 13.0692 28.0957 13.0692 29.2616V37.84Z" fill="#2F2F2F"/>
<path d="M36.2961 25.1302H13.7084C11.9488 25.1302 10.5075 26.2533 10.5075 27.6251V34.3236C10.5075 34.9119 10.9888 35.3905 11.5771 35.3905H38.43C39.0156 35.3905 39.497 34.9092 39.497 34.3236V27.6251C39.4997 26.2533 38.0583 25.1302 36.2961 25.1302Z" fill="#FCC21B"/>
<path d="M15.2887 31.9437C16.4096 31.9437 17.3183 31.035 17.3183 29.9141C17.3183 28.7931 16.4096 27.8845 15.2887 27.8845C14.1678 27.8845 13.2591 28.7931 13.2591 29.9141C13.2591 31.035 14.1678 31.9437 15.2887 31.9437Z" fill="white"/>
<path d="M32.9589 29.9141C32.9589 31.0345 33.868 31.9437 34.9911 31.9437C36.1089 31.9437 37.0208 31.0345 37.0208 29.9141C37.0208 28.7936 36.1116 27.8845 34.9911 27.8845C33.868 27.8845 32.9589 28.7936 32.9589 29.9141Z" fill="white"/>
<path d="M36.7721 23.9937V23.9857L35.0259 17.5359C34.7131 16.3833 33.4777 15.4367 32.2824 15.4367H17.7275C16.5295 15.4367 15.2941 16.3833 14.9812 17.5359L13.235 23.9857C13.2324 23.9884 13.2324 23.9937 13.2324 23.9964L12.6655 26.0848H37.3417L36.7721 23.9937V23.9937Z" fill="#FCC21B"/>
<path d="M32.9589 18.429C32.8332 17.8434 32.2423 17.3647 31.6433 17.3647H18.3612C17.7622 17.3647 17.1713 17.8434 17.0456 18.429L15.8663 23.9696C15.7406 24.5553 16.1311 25.0339 16.7274 25.0339H33.2798C33.8788 25.0339 34.2665 24.5553 34.1408 23.9696L32.9589 18.429V18.429Z" fill="#40C0E7"/>
</g>
<defs>
<clipPath id="clip0_1_95">
<rect width="34.228" height="34.228" fill="white" transform="translate(7.88959 5.73255)"/>
</clipPath>
</defs>
</svg>
